<svg xmlns="http://www.w3.org/2000/svg" width="32" height="32" viewBox="0 0 128 128" fill="none">
  <defs>
    <linearGradient id="s" x1="64" y1="8" x2="64" y2="120" gradientUnits="userSpaceOnUse">
      <stop stop-color="#8b5cf6"/>
      <stop offset="1" stop-color="#6d28d9"/>
    </linearGradient>
    <linearGradient id="l" x1="16" y1="28" x2="64" y2="120" gradientUnits="userSpaceOnUse">
      <stop stop-color="#a78bfa"/>
      <stop offset="1" stop-color="#7c3aed"/>
    </linearGradient>
  </defs>
  <path d="M64 8L16 28v36c0 30.92 20.48 59.84 48 68 27.52-8.16 48-37.08 48-68V28L64 8z" fill="url(#s)"/>
  <path d="M64 8L16 28v36c0 30.92 20.48 59.84 48 68V8z" fill="url(#l)"/>
  <circle cx="64" cy="52" r="14" fill="none" stroke="white" stroke-width="7" stroke-linecap="round"/>
  <rect x="60" y="64" width="8" height="32" rx="4" fill="white"/>
  <rect x="68" y="80" width="12" height="7" rx="3.5" fill="white"/>
  <rect x="68" y="89" width="8" height="7" rx="3.5" fill="white"/>
</svg>
